<svg width="19" height="22" viewBox="0 0 19 22" fill="none" xmlns="http://www.w3.org/2000/svg">
<path d="M10.1434 7.46875H3.64062V8.20094H10.1434V7.46875Z" fill="#377CF6" stroke="#377CF6" stroke-width="0.4"/>
<path d="M8.65003 10.7305H3.64062V11.4622H8.65003V10.7305Z" fill="#377CF6" stroke="#377CF6" stroke-width="0.4"/>
<path d="M8.65003 13.9844H3.64062V14.7161H8.65003V13.9844Z" fill="#377CF6" stroke="#377CF6" stroke-width="0.4"/>
<path d="M10.1434 17.2383H3.64062V17.9717H10.1434V17.2383Z" fill="#377CF6" stroke="#377CF6" stroke-width="0.4"/>
<path d="M14.8705 1H10.1743C8.45755 1 7.04455 2.27798 6.80529 3.93024H4.12697C2.24065 3.93024 0.707031 5.4656 0.707031 7.34819V18.0935C0.707031 19.9788 2.24065 21.5119 4.12697 21.5119H12.9174C14.8028 21.5119 16.3359 19.9786 16.3359 18.0935V13.5911C17.4863 13.0426 18.2875 11.8813 18.2875 10.5234V4.41845C18.2907 2.53412 16.7586 1 14.8705 1ZM15.36 18.095C15.36 19.441 14.2676 20.5372 12.9194 20.5372H4.12871C2.77925 20.5372 1.68593 19.441 1.68593 18.095V7.35067C1.68593 6.00345 2.77925 4.90814 4.12871 4.90814H12.9194C14.2676 4.90814 15.36 6.00345 15.36 7.35067V18.095ZM17.3153 10.5234C17.3153 11.3176 16.9269 12.0198 16.3379 12.4656V7.35067C16.3379 5.4656 14.8025 3.93173 12.9194 3.93173H7.78443C8.01153 2.81955 8.99589 1.97815 10.1773 1.97815H14.8733C16.2212 1.97815 17.3173 3.0742 17.3173 4.41994V10.5234H17.3153Z" fill="#377CF6" stroke="#377CF6" stroke-width="0.2"/>
</svg>
