<svg width="14" height="13" viewBox="0 0 14 13" fill="none" xmlns="http://www.w3.org/2000/svg">
<g id="blind 1">
<g id="Group">
<g id="Group_2">
<path id="Vector" d="M2.22635 8.69731C2.44281 8.89532 2.79367 8.89528 3.01005 8.69719C3.22643 8.4991 3.22637 8.17802 3.00992 7.98L1.73831 6.81672L3.66056 5.05761C4.82086 3.99578 6.46802 3.56314 8.04432 3.86708C8.34379 3.92483 8.63771 3.74946 8.70081 3.4754C8.7639 3.20134 8.57228 2.93237 8.2728 2.87462C6.3337 2.50075 4.30484 3.03361 2.87684 4.34042L0.562695 6.45818C0.346263 6.65624 0.346289 6.97739 0.562773 7.17541L2.22635 8.69731Z" fill="#B8B8B8"/>
<path id="Vector_2" d="M13.5373 6.45942L11.8737 4.93754C11.6572 4.73953 11.3064 4.73957 11.09 4.93766C10.8736 5.13575 10.8737 5.45683 11.0901 5.65485L12.3617 6.81813L10.4395 8.57724C9.27918 9.63909 7.63202 10.0717 6.05572 9.76777C5.75624 9.71003 5.46232 9.88539 5.39922 10.1594C5.33613 10.4335 5.52775 10.7025 5.82723 10.7602C7.76634 11.1341 9.79519 10.6012 11.2232 9.29443L13.5373 7.17667C13.7538 6.97859 13.7538 6.65743 13.5373 6.45942Z" fill="#B8B8B8"/>
<path id="Vector_3" d="M4.27832 6.81686C4.27832 7.09693 4.52642 7.32398 4.83247 7.32398C5.13851 7.32398 5.38661 7.09693 5.38661 6.81686C5.38661 5.9767 6.131 5.29548 7.04907 5.29548C7.35512 5.29548 7.60322 5.06844 7.60322 4.78837C7.60322 4.50829 7.35512 4.28125 7.04907 4.28125C5.51891 4.28123 4.27832 5.41653 4.27832 6.81686Z" fill="#B8B8B8"/>
<path id="Vector_4" d="M8.7127 6.81964C8.7127 7.6598 7.96831 8.34102 7.05024 8.34102C6.74419 8.34102 6.49609 8.56806 6.49609 8.84813C6.49609 9.12821 6.74419 9.35525 7.05024 9.35525C8.58041 9.35525 9.82102 8.21995 9.82102 6.81962C9.82102 6.53954 9.57292 6.3125 9.26688 6.3125C8.9608 6.3125 8.7127 6.53957 8.7127 6.81964Z" fill="#B8B8B8"/>
<path id="Vector_5" d="M13.5378 0.882905C13.3214 0.684865 12.9705 0.684865 12.7541 0.882905L0.562695 12.0397C0.346289 12.2377 0.346289 12.5588 0.562695 12.7568C0.779101 12.9549 1.12998 12.9549 1.34639 12.7568L13.5378 1.60009C13.7542 1.40205 13.7542 1.08095 13.5378 0.882905Z" fill="#B8B8B8"/>
</g>
</g>
</g>
</svg>
