<svg width="16" height="16" viewBox="0 0 16 16" fill="none" xmlns="http://www.w3.org/2000/svg">
<path d="M4.66667 2.00065L12 2.00065C12.5304 2.00065 13.0391 2.21136 13.4142 2.58644C13.7893 2.96151 14 3.47022 14 4.00065L14 11.334C14 11.8644 13.7893 12.3731 13.4142 12.7482C13.0391 13.1233 12.5304 13.334 12 13.334L10.6667 13.334C10.4899 13.334 10.3203 13.2637 10.1953 13.1387C10.0702 13.0137 10 12.8441 10 12.6673C10 12.4905 10.0702 12.3209 10.1953 12.1959C10.3203 12.0709 10.4899 12.0007 10.6667 12.0007L12 12.0007C12.1768 12.0007 12.3464 11.9304 12.4714 11.8054C12.5964 11.6804 12.6667 11.5108 12.6667 11.334L12.6667 4.00065C12.6667 3.82384 12.5964 3.65427 12.4714 3.52925C12.3464 3.40422 12.1768 3.33398 12 3.33398L4.66667 3.33398C4.48986 3.33398 4.32029 3.40422 4.19526 3.52924C4.07024 3.65427 4 3.82384 4 4.00065L4 5.33398C4 5.51079 3.92976 5.68036 3.80474 5.80539C3.67971 5.93041 3.51014 6.00065 3.33333 6.00065C3.15652 6.00065 2.98695 5.93041 2.86193 5.80539C2.7369 5.68036 2.66667 5.51079 2.66667 5.33398L2.66667 4.00065C2.66667 3.47022 2.87738 2.96151 3.25245 2.58644C3.62753 2.21136 4.13623 2.00065 4.66667 2.00065Z" fill="white"/>
<path d="M4.00521 7.33268L8.00521 7.33268C8.18202 7.33268 8.35159 7.40292 8.47661 7.52794C8.60164 7.65297 8.67188 7.82254 8.67188 7.99935L8.67188 11.9993C8.67188 12.1762 8.60164 12.3457 8.47661 12.4708C8.35159 12.5958 8.18202 12.666 8.00521 12.666C7.8284 12.666 7.65883 12.5958 7.5338 12.4708C7.40878 12.3457 7.33854 12.1762 7.33854 11.9993L7.33854 8.66602L4.00521 8.66602C3.8284 8.66602 3.65883 8.59578 3.5338 8.47075C3.40878 8.34573 3.33854 8.17616 3.33854 7.99935C3.33854 7.82254 3.40878 7.65297 3.5338 7.52794C3.65883 7.40292 3.8284 7.33268 4.00521 7.33268Z" fill="white"/>
<path d="M8.00535 7.33295C8.13718 7.33298 8.26605 7.3721 8.37566 7.44535C8.48526 7.51861 8.57069 7.62272 8.62114 7.74452C8.67158 7.86632 8.68478 8.00034 8.65907 8.12964C8.63336 8.25894 8.56989 8.37772 8.47668 8.47095L3.14335 13.8043C3.08185 13.868 3.00829 13.9187 2.92695 13.9537C2.84562 13.9886 2.75814 14.007 2.66962 14.0078C2.5811 14.0086 2.49331 13.9917 2.41138 13.9582C2.32945 13.9246 2.25502 13.8751 2.19242 13.8125C2.12983 13.75 2.08032 13.6755 2.0468 13.5936C2.01328 13.5117 1.99641 13.4239 1.99718 13.3354C1.99795 13.2468 2.01634 13.1594 2.05128 13.078C2.08622 12.9967 2.13701 12.9231 2.20068 12.8616L7.53402 7.52829C7.65901 7.40325 7.82855 7.33299 8.00535 7.33295Z" fill="white"/>
</svg>
