<svg width="36" height="36" viewBox="0 0 36 36" fill="none" xmlns="http://www.w3.org/2000/svg">
<path d="M19.3712 2.83471C24.9459 2.83471 28.6675 6.49597 28.6675 12.0105C28.6675 15.28 26.9498 17.4647 25.4733 19.559L27.0402 21.1109C28.562 18.8508 30.9426 16.3497 30.9426 11.9954C30.9426 5.13993 26.317 0.55957 19.3712 0.55957C15.499 0.55957 12.365 1.97585 10.331 4.41671L12.0034 6.07406C13.6156 4.02496 16.192 2.83471 19.3712 2.83471ZM30.5057 30.4374C30.9878 30.9044 31.6959 30.8894 32.1479 30.4374C32.6 29.9853 32.6151 29.2471 32.1479 28.7951L5.47938 2.09638C5.01235 1.64439 4.25898 1.6595 3.8221 2.09638C3.38515 2.54838 3.40019 3.31685 3.8221 3.73869L30.5057 30.4374ZM13.9169 27.7404H24.1926L21.9024 25.4653H15.3332V24.5311C15.3332 20.5986 10.3762 17.1333 10.3762 13.8788C10.3762 13.5473 10.4365 13.261 10.5118 12.9747L7.9655 10.4736C7.84497 10.9407 7.79977 11.453 7.79977 11.9954C7.79977 18.5043 13.0882 20.8548 13.0882 24.501V26.9117C13.0882 27.424 13.4047 27.7404 13.9169 27.7404ZM14.4744 31.8085H24.2679C25.0364 31.8085 25.6541 31.1756 25.6541 30.3922C25.6541 29.6087 25.0364 28.9758 24.2679 28.9758H14.4744C13.706 28.9758 13.0882 29.6087 13.0882 30.3922C13.0882 31.1756 13.706 31.8085 14.4744 31.8085ZM19.3712 35.4396C21.4504 35.4396 22.9119 34.4904 23.0626 33.0289H15.6798C15.8003 34.4904 17.2768 35.4396 19.3712 35.4396Z" fill="black"/>
</svg>
