<svg width="35" height="35" viewBox="0 0 35 35" fill="none" xmlns="http://www.w3.org/2000/svg">
<path d="M30.1686 14.3792C30.0597 17.2038 28.9911 19.9068 27.1391 22.0423C26.5907 22.6534 26.1724 23.3697 25.9096 24.1476V26.3308C25.9096 26.8612 25.6989 27.3699 25.3239 27.745C24.9488 28.12 24.4401 28.3308 23.9096 28.3308H16.0991C15.5687 28.3308 15.06 28.12 14.6849 27.745C14.3098 27.3699 14.0991 26.8612 14.0991 26.3308V24.1476C13.8363 23.3697 13.418 22.6535 12.8696 22.0423C11.0161 19.9074 9.94603 17.2043 9.83594 14.3792C9.83587 12.0324 10.6475 9.75786 12.1333 7.94129C13.619 6.12473 15.6873 4.87798 17.9875 4.4125C20.2876 3.94702 22.6779 4.29146 24.7531 5.38741C26.8282 6.48336 28.4604 8.26335 29.3728 10.4255C29.9032 11.6775 30.1754 13.0237 30.1728 14.3834L30.1686 14.3792ZM28.1686 14.3792C28.1686 12.2139 27.3084 10.1373 25.7773 8.60619C24.2463 7.07511 22.1697 6.21495 20.0044 6.21495C17.8391 6.21495 15.7625 7.07511 14.2314 8.60619C12.7003 10.1373 11.8402 12.2139 11.8402 14.3792C11.8402 19.3539 16.0991 21.556 16.0991 24.1476V26.3308H23.9096V24.1476C23.9096 21.556 28.1686 19.3539 28.1686 14.3792ZM24.9096 30.6781C24.9099 30.8096 24.8843 30.9399 24.8341 31.0615C24.784 31.183 24.7104 31.2935 24.6175 31.3866C24.5246 31.4797 24.4143 31.5535 24.2928 31.6039C24.1713 31.6543 24.0411 31.6802 23.9096 31.6802H16.0991C15.8339 31.6802 15.5795 31.5749 15.392 31.3873C15.2045 31.1998 15.0991 30.9455 15.0991 30.6802C15.0991 30.415 15.2045 30.1607 15.392 29.9731C15.5795 29.7856 15.8339 29.6802 16.0991 29.6802H23.9096C24.1745 29.6802 24.4285 29.7853 24.616 29.9724C24.8035 30.1595 24.9091 30.4133 24.9096 30.6781ZM23.5623 33.335C23.5963 33.4335 23.5988 33.5402 23.5694 33.6402C23.54 33.7402 23.4801 33.8285 23.3981 33.8929C22.4123 34.6584 21.1998 35.0739 19.9517 35.0739C18.7037 35.0739 17.4912 34.6584 16.5054 33.8929C16.4226 33.8293 16.3618 33.7414 16.3316 33.6415C16.3014 33.5416 16.3033 33.4348 16.337 33.336C16.3707 33.2372 16.4345 33.1515 16.5195 33.0909C16.6045 33.0303 16.7063 32.9978 16.8107 32.9981H23.0907C23.1949 32.9981 23.2965 33.0305 23.3814 33.0909C23.4663 33.1512 23.5281 33.2366 23.5623 33.335Z" fill="red"/>
<path d="M21 18.9048V12.619C20.6494 11.7009 19.3506 11.7009 19 12.619V18.9048H17L20 21L23 18.9048H21Z"  fill="red"/>
</svg>
