<svg width="14" height="12" viewBox="0 0 14 12" fill="none" xmlns="http://www.w3.org/2000/svg">
<path d="M7.31923 0V2.96074C7.31923 3.09867 7.20429 3.209 7.07096 3.209H3.9631C3.82978 3.209 3.71484 3.09867 3.71484 2.96074V0H7.31923Z" fill="white"/>
<path fill-rule="evenodd" clip-rule="evenodd" d="M9.65459 0H8.14664V2.96074C8.14664 3.55427 7.66437 4.03654 7.07084 4.03654H3.96298C3.36945 4.03654 2.88718 3.55427 2.88718 2.96074V0H1.37923C0.616055 0 0 0.616055 0 1.37923V9.65459C0 10.4178 0.616055 11.0338 1.37923 11.0338H6.64226C6.22117 10.3858 5.97656 9.61259 5.97656 8.78222C5.97656 6.49704 7.82907 4.64453 10.1142 4.64453C10.4303 4.64453 10.7381 4.67997 11.0338 4.74708V1.37923C11.0338 0.616055 10.4178 0 9.65459 0ZM3.67978 9.47529H1.97046C1.74196 9.47529 1.55669 9.29002 1.55669 9.06153C1.55669 8.83303 1.74196 8.64776 1.97046 8.64776H3.68024C3.90873 8.64776 4.09401 8.83303 4.09401 9.06153C4.09401 9.29002 3.90827 9.47529 3.67978 9.47529Z" fill="white"/>
<path d="M10.111 5.56348C8.33613 5.56348 6.896 7.00361 6.896 8.77852C6.896 10.5597 8.33613 11.9999 10.111 11.9999C11.8923 11.9999 13.3324 10.5597 13.3324 8.77852C13.3324 7.00361 11.8923 5.56348 10.111 5.56348ZM11.2941 9.16003C11.5164 9.38173 11.5164 9.74176 11.2941 9.96347C11.1829 10.0746 11.0376 10.1302 10.8917 10.1302C10.7458 10.1302 10.6006 10.0746 10.4894 9.96347L10.1123 9.58638L9.73521 9.96347C9.62404 10.0746 9.47877 10.1302 9.33286 10.1302C9.18695 10.1302 9.04167 10.0746 8.9305 9.96347C8.70817 9.74113 8.70817 9.38173 8.9305 9.16003L9.30822 8.78294L8.9305 8.40585C8.70817 8.18414 8.70817 7.82411 8.9305 7.60241C9.15284 7.3807 9.51288 7.38007 9.73458 7.60241L10.1117 7.97949L10.4888 7.60241C10.7111 7.38007 11.0711 7.38007 11.2928 7.60241C11.5145 7.82474 11.5152 8.18414 11.2928 8.40585L10.9151 8.78294L11.2941 9.16003Z" fill="white"/>
</svg>
