<svg width="12" height="12" viewBox="0 0 12 12" fill="none" xmlns="http://www.w3.org/2000/svg">
<path d="M7.49395 6.00107L11.1885 2.30648C11.6031 1.89407 11.6031 1.22603 11.1928 0.811465C10.7804 0.396897 10.1124 0.396897 9.69781 0.807169L9.69566 0.809317L6.00107 4.50391L2.30433 0.811465C1.89192 0.399045 1.22173 0.399045 0.809315 0.811465C0.396895 1.22388 0.396895 1.89407 0.809315 2.30648L4.5039 6.00107L0.809315 9.69566C0.396895 10.1081 0.396895 10.7783 0.809315 11.1907C1.22173 11.6031 1.89192 11.6031 2.30433 11.1907L5.99892 7.4961L9.69351 11.1907C10.1059 11.6031 10.7761 11.6031 11.1885 11.1907C11.601 10.7783 11.601 10.1081 11.1885 9.69566L7.49395 6.00107Z" fill="white"/>
</svg>
