<svg width="35" height="35" viewBox="0 0 35 35" fill="none" xmlns="http://www.w3.org/2000/svg">
<path d="M31.0356 9.33317L17.1231 23.2456C15.7377 24.631 11.6252 25.2727 10.7064 24.3539C9.78767 23.4352 10.4148 19.3227 11.8002 17.9373L25.7273 4.01021C26.0707 3.63551 26.4865 3.3343 26.9497 3.12474C27.4127 2.91518 27.9135 2.80158 28.4217 2.79087C28.9298 2.78018 29.435 2.87255 29.9064 3.06244C30.3779 3.25233 30.8061 3.53583 31.165 3.89575C31.5239 4.25567 31.8062 4.68456 31.9948 5.15657C32.1833 5.62858 32.2745 6.1339 32.2624 6.64205C32.2503 7.15021 32.1352 7.65069 31.9245 8.1132C31.7136 8.57572 31.4113 8.99074 31.0356 9.33317Z" stroke="black" stroke-width="2" stroke-linecap="round" stroke-linejoin="round"/>
<path d="M16.0391 5.8335H8.7474C7.20029 5.8335 5.71666 6.44807 4.62269 7.54204C3.52874 8.636 2.91406 10.1197 2.91406 11.6668V26.2502C2.91406 27.7973 3.52874 29.281 4.62269 30.3749C5.71666 31.469 7.20029 32.0835 8.7474 32.0835H24.7891C28.012 32.0835 29.1641 29.4585 29.1641 26.2502V18.9585" stroke="black" stroke-width="2" stroke-linecap="round" stroke-linejoin="round"/>
</svg>
