<svg width="17" height="15" viewBox="0 0 17 15" fill="none" xmlns="http://www.w3.org/2000/svg">
<path d="M8.86212 1.80513L8.86217 1.80518L11.0474 3.77219L8.86212 1.80513ZM8.86212 1.80513C8.64103 1.60649 8.2865 1.60643 8.06567 1.80517L8.11801 1.86333M8.86212 1.80513L8.11801 1.86333M8.11801 1.86333L8.06567 1.80517L5.8801 3.77219M8.11801 1.86333L5.93239 3.83039M7.89632 3.41279L6.67622 4.51089C6.45541 4.70961 6.10085 4.70961 5.88005 4.51089M7.89632 3.41279L5.93239 3.83039M7.89632 3.41279V9.03149C7.89632 9.32517 8.15803 9.54985 8.46359 9.54985C8.76915 9.54985 9.03086 9.32517 9.03086 9.03149V3.41279L10.251 4.51089C10.3622 4.61103 10.5066 4.65978 10.6492 4.65978C10.7918 4.65978 10.9362 4.61103 11.0475 4.51089M7.89632 3.41279L10.9951 3.83039L11.0475 3.77224C11.273 3.97496 11.273 4.30816 11.0475 4.51089M5.88005 4.51089L5.93239 4.45273L5.8801 4.51093C5.88008 4.51092 5.88006 4.5109 5.88005 4.51089ZM5.88005 4.51089C5.65445 4.30815 5.65447 3.97491 5.8801 3.77219M5.8801 3.77219L5.88005 3.77223L5.93239 3.83039M5.8801 3.77219L5.93239 3.83039M11.0475 4.51089C11.0474 4.5109 11.0474 4.51092 11.0474 4.51093L10.9951 4.45273L11.0475 4.51089ZM13.6685 6.66156V6.66153C13.6681 5.88254 12.9673 5.26295 12.1228 5.26295H10.7881C10.4829 5.26295 10.2208 5.48728 10.2208 5.78132C10.2208 6.07535 10.4829 6.29968 10.7881 6.29968H12.1231C12.3575 6.29968 12.5339 6.46967 12.5339 6.66156V12.4172C12.5339 12.6091 12.3575 12.7791 12.1231 12.7791H4.77177C4.53741 12.7791 4.36099 12.6091 4.36099 12.4172V6.66156C4.36099 6.46967 4.53741 6.29968 4.77177 6.29968H6.10681C6.41233 6.29968 6.67408 6.07532 6.67408 5.78132C6.67408 5.48731 6.41233 5.26295 6.10681 5.26295H4.77177C3.92766 5.26295 3.22644 5.88283 3.22644 6.66156V12.4172C3.22644 13.1959 3.92766 13.8158 4.77177 13.8158H12.1231C12.9672 13.8158 13.6685 13.1959 13.6685 12.4172V6.66156Z" fill="white" stroke="white" stroke-width="0.156489"/>
</svg>
