<svg width="25" height="25" viewBox="0 0 25 25" fill="none" xmlns="http://www.w3.org/2000/svg">
<circle cx="12.5" cy="12.5" r="12.5" fill="#A0D4CE"/>
<g clip-path="url(#clip0_1436_151)">
<path d="M18.2834 13.8022C17.6662 13.1844 16.8097 12.9227 15.7097 13.2175L11.7872 9.29107L11.839 9.09503C12.065 8.24739 11.8209 7.33626 11.2022 6.7176C10.5723 6.08721 9.6768 5.8559 8.82989 6.08854C8.70911 6.12171 8.6151 6.2166 8.58311 6.33771C8.55112 6.45881 8.58621 6.58753 8.67473 6.6761L9.61919 7.62056C9.89531 7.89735 9.89261 8.34065 9.61987 8.61412C9.34928 8.88543 8.89446 8.88501 8.62495 8.6148L7.6803 7.67008C7.59173 7.58146 7.46264 7.54671 7.34153 7.57889C7.22041 7.61104 7.12586 7.70528 7.09281 7.82617C6.86357 8.66378 7.08909 9.56484 7.72202 10.1978C8.33903 10.8152 9.19448 11.0779 10.2951 10.7824L14.2179 14.7089C13.9252 15.8085 14.1777 16.6568 14.8032 17.2823C15.4339 17.9135 16.3299 18.1431 17.1749 17.9112C17.2957 17.8781 17.3898 17.7832 17.4218 17.6621C17.4538 17.541 17.4187 17.4122 17.3302 17.3236L16.3859 16.3794C16.1098 16.1026 16.1125 15.6592 16.3852 15.3858C16.6592 15.1133 17.113 15.1176 17.3801 15.3855L18.3249 16.3299C18.4134 16.4185 18.5425 16.4533 18.6636 16.4211C18.7847 16.3889 18.8793 16.2947 18.9123 16.1738C19.1415 15.3364 18.9161 14.4351 18.2834 13.8022Z" fill="white"/>
<path d="M10.7627 12.248L7.41135 15.5998C6.86288 16.1483 6.86288 17.0402 7.41135 17.5886C7.95981 18.1371 8.8517 18.1371 9.40013 17.5886L12.7514 14.2369L10.7627 12.248ZM9.06985 16.4976C8.93251 16.6349 8.71009 16.6349 8.57274 16.4976C8.43542 16.3603 8.43542 16.1378 8.57274 16.0005L10.7051 13.8677C10.8424 13.7304 11.0649 13.7304 11.2022 13.8677C11.3395 14.0051 11.3395 14.2275 11.2022 14.3649L9.06985 16.4976Z" fill="white"/>
<path d="M18.8969 6.70906L18.2908 6.10299C18.1767 5.98892 17.9997 5.96712 17.8614 6.05007L15.997 7.16857C15.8008 7.28625 15.7675 7.55689 15.9292 7.71863L16.0777 7.86699L13.7109 10.224L14.7055 11.2186L17.0722 8.86156L17.2813 9.07064C17.443 9.23234 17.7137 9.19906 17.8313 9.00289L18.9498 7.1385C19.0328 7.00015 19.011 6.82313 18.8969 6.70906Z" fill="white"/>
</g>
<defs>
<clipPath id="clip0_1436_151">
<rect width="12" height="12" fill="white" transform="translate(7 6)"/>
</clipPath>
</defs>
</svg>
