<svg width="15" height="15" viewBox="0 0 15 15" fill="none" xmlns="http://www.w3.org/2000/svg">
<path d="M1.91777 5.70029C2.7832 6.01904 3.86719 6.225 5.03906 6.29883C5.97188 4.40918 7.91895 3.10547 10.166 3.10547C10.7637 3.10512 11.3577 3.19885 11.9262 3.3832C11.7504 2.92764 11.2629 2.40615 10.0939 1.97695C8.99414 1.57061 7.54336 1.34766 6.00586 1.34766C4.46836 1.34766 3.01758 1.57061 1.91777 1.97549C0.332813 2.55938 0 3.31055 0 3.83789C0 4.36523 0.332813 5.11641 1.91777 5.70029Z" fill="white"/>
<path d="M1.91777 9.36279C2.66396 9.6376 3.57275 9.82861 4.56064 9.92295C4.37971 9.00278 4.4277 8.05225 4.70039 7.15498C3.55107 7.06094 2.48496 6.84648 1.61396 6.52539C0.943652 6.27842 0.403418 5.97695 0 5.62305V7.50039C0 8.02773 0.332813 8.77891 1.91777 9.36279Z" fill="white"/>
<path d="M4.81758 10.8262C3.62373 10.7383 2.51455 10.5194 1.61396 10.1875C0.943652 9.94053 0.403418 9.63906 0 9.28516V11.1625C0 11.6898 0.332813 12.441 1.91777 13.0249C3.01758 13.4298 4.46836 13.6527 6.00586 13.6527C6.36562 13.6527 6.7207 13.6404 7.06787 13.6164C6.03925 12.9503 5.25072 11.9725 4.81758 10.8262Z" fill="white"/>
<path d="M10.166 3.98438C7.5 3.98438 5.33203 6.15234 5.33203 8.81836C5.33203 11.4844 7.5 13.6523 10.166 13.6523C12.832 13.6523 15 11.4844 15 8.81836C15 6.15234 12.832 3.98438 10.166 3.98438ZM9.80859 8.37891H10.5234C10.8908 8.38318 11.2422 8.52937 11.5042 8.78687C11.7661 9.04437 11.9184 9.39323 11.929 9.76042C11.9396 10.1276 11.8077 10.4847 11.561 10.7568C11.3143 11.029 10.9719 11.1952 10.6055 11.2207V11.4551C10.6055 11.5716 10.5592 11.6834 10.4768 11.7658C10.3943 11.8482 10.2826 11.8945 10.166 11.8945C10.0495 11.8945 9.93769 11.8482 9.85528 11.7658C9.77286 11.6834 9.72656 11.5716 9.72656 11.4551V11.2242H8.82539C8.70884 11.2242 8.59706 11.1779 8.51465 11.0955C8.43224 11.0131 8.38594 10.9013 8.38594 10.7848C8.38594 10.6682 8.43224 10.5564 8.51465 10.474C8.59706 10.3916 8.70884 10.3453 8.82539 10.3453H10.5246C10.6688 10.3453 10.8071 10.288 10.9091 10.1861C11.0111 10.0841 11.0684 9.94577 11.0684 9.80156C11.0684 9.65735 11.0111 9.51905 10.9091 9.41707C10.8071 9.3151 10.6688 9.25781 10.5246 9.25781H9.80859C9.44128 9.25354 9.08985 9.10735 8.82787 8.84985C8.56589 8.59235 8.41368 8.24349 8.40308 7.8763C8.39248 7.50911 8.52432 7.15206 8.77101 6.87987C9.01769 6.60768 9.3601 6.44147 9.72656 6.41602V6.18164C9.72656 6.06509 9.77286 5.95331 9.85528 5.8709C9.93769 5.78849 10.0495 5.74219 10.166 5.74219C10.2826 5.74219 10.3943 5.78849 10.4768 5.8709C10.5592 5.95331 10.6055 6.06509 10.6055 6.18164V6.4125H11.5066C11.6232 6.4125 11.735 6.4588 11.8174 6.54121C11.8998 6.62363 11.9461 6.7354 11.9461 6.85195C11.9461 6.9685 11.8998 7.08028 11.8174 7.16269C11.735 7.24511 11.6232 7.29141 11.5066 7.29141H9.80742C9.66321 7.29141 9.52491 7.34869 9.42293 7.45067C9.32096 7.55264 9.26367 7.69094 9.26367 7.83516C9.26367 7.97937 9.32096 8.11767 9.42293 8.21965C9.52491 8.32162 9.66321 8.37891 9.80742 8.37891H9.80859Z" fill="white"/>
</svg>
