<svg width="20" height="20" viewBox="0 0 20 20" fill="none" xmlns="http://www.w3.org/2000/svg">
<g clip-path="url(#clip0_19938_36411)">
<path d="M14.1693 9.9987C11.8693 9.9987 10.0026 11.8654 10.0026 14.1654C10.0026 16.4654 11.8693 18.332 14.1693 18.332C16.4693 18.332 18.3359 16.4654 18.3359 14.1654C18.3359 11.8654 16.4693 9.9987 14.1693 9.9987ZM15.5443 16.1237L13.7526 14.332V11.6654H14.5859V13.9904L16.1276 15.532L15.5443 16.1237ZM15.0026 2.4987H12.3526C12.0026 1.53203 11.0859 0.832031 10.0026 0.832031C8.91927 0.832031 8.0026 1.53203 7.6526 2.4987H5.0026C4.08594 2.4987 3.33594 3.2487 3.33594 4.16536V16.6654C3.33594 17.582 4.08594 18.332 5.0026 18.332H10.0943C9.60125 17.8535 9.20017 17.2886 8.91094 16.6654H5.0026V4.16536H6.66927V6.66536H13.3359V4.16536H15.0026V8.3987C15.5943 8.48203 16.1526 8.65703 16.6693 8.8987V4.16536C16.6693 3.2487 15.9193 2.4987 15.0026 2.4987ZM10.0026 4.16536C9.54427 4.16536 9.16927 3.79036 9.16927 3.33203C9.16927 2.8737 9.54427 2.4987 10.0026 2.4987C10.4609 2.4987 10.8359 2.8737 10.8359 3.33203C10.8359 3.79036 10.4609 4.16536 10.0026 4.16536Z" fill="white"/>
</g>
<defs>
<clipPath id="clip0_19938_36411">
<rect width="20" height="20" fill="white"/>
</clipPath>
</defs>
</svg>
