<svg width="277" height="49" viewBox="0 0 277 49" fill="none" xmlns="http://www.w3.org/2000/svg">
<path d="M17.34 17.54C17.34 18.66 17.07 19.71 16.53 20.69C16.01 21.67 15.18 22.46 14.04 23.06C12.92 23.66 11.5 23.96 9.78 23.96H6.27V32H2.07V11.06H9.78C11.4 11.06 12.78 11.34 13.92 11.9C15.06 12.46 15.91 13.23 16.47 14.21C17.05 15.19 17.34 16.3 17.34 17.54ZM9.6 20.57C10.76 20.57 11.62 20.31 12.18 19.79C12.74 19.25 13.02 18.5 13.02 17.54C13.02 15.5 11.88 14.48 9.6 14.48H6.27V20.57H9.6ZM35.772 23.33C35.772 23.93 35.732 24.47 35.652 24.95H23.502C23.602 26.15 24.022 27.09 24.762 27.77C25.502 28.45 26.412 28.79 27.492 28.79C29.052 28.79 30.162 28.12 30.822 26.78H35.352C34.872 28.38 33.952 29.7 32.592 30.74C31.232 31.76 29.562 32.27 27.582 32.27C25.982 32.27 24.542 31.92 23.262 31.22C22.002 30.5 21.012 29.49 20.292 28.19C19.592 26.89 19.242 25.39 19.242 23.69C19.242 21.97 19.592 20.46 20.292 19.16C20.992 17.86 21.972 16.86 23.232 16.16C24.492 15.46 25.942 15.11 27.582 15.11C29.162 15.11 30.572 15.45 31.812 16.13C33.072 16.81 34.042 17.78 34.722 19.04C35.422 20.28 35.772 21.71 35.772 23.33ZM31.422 22.13C31.402 21.05 31.012 20.19 30.252 19.55C29.492 18.89 28.562 18.56 27.462 18.56C26.422 18.56 25.542 18.88 24.822 19.52C24.122 20.14 23.692 21.01 23.532 22.13H31.422ZM37.7576 23.63C37.7576 21.95 38.0876 20.46 38.7476 19.16C39.4276 17.86 40.3376 16.86 41.4776 16.16C42.6376 15.46 43.9276 15.11 45.3476 15.11C46.5876 15.11 47.6676 15.36 48.5876 15.86C49.5276 16.36 50.2776 16.99 50.8376 17.75V15.38H55.0676V32H50.8376V29.57C50.2976 30.35 49.5476 31 48.5876 31.52C47.6476 32.02 46.5576 32.27 45.3176 32.27C43.9176 32.27 42.6376 31.91 41.4776 31.19C40.3376 30.47 39.4276 29.46 38.7476 28.16C38.0876 26.84 37.7576 25.33 37.7576 23.63ZM50.8376 23.69C50.8376 22.67 50.6376 21.8 50.2376 21.08C49.8376 20.34 49.2976 19.78 48.6176 19.4C47.9376 19 47.2076 18.8 46.4276 18.8C45.6476 18.8 44.9276 18.99 44.2676 19.37C43.6076 19.75 43.0676 20.31 42.6476 21.05C42.2476 21.77 42.0476 22.63 42.0476 23.63C42.0476 24.63 42.2476 25.51 42.6476 26.27C43.0676 27.01 43.6076 27.58 44.2676 27.98C44.9476 28.38 45.6676 28.58 46.4276 28.58C47.2076 28.58 47.9376 28.39 48.6176 28.01C49.2976 27.61 49.8376 27.05 50.2376 26.33C50.6376 25.59 50.8376 24.71 50.8376 23.69ZM69.0096 32L63.3696 24.92V32H59.1696V9.8H63.3696V22.43L68.9496 15.38H74.4096L67.0896 23.72L74.4696 32H69.0096Z" fill="#3B3B3B"/>
<path d="M102.57 17.54C102.57 18.66 102.3 19.71 101.76 20.69C101.24 21.67 100.41 22.46 99.2705 23.06C98.1505 23.66 96.7305 23.96 95.0105 23.96H91.5005V32H87.3005V11.06H95.0105C96.6305 11.06 98.0105 11.34 99.1505 11.9C100.29 12.46 101.14 13.23 101.7 14.21C102.28 15.19 102.57 16.3 102.57 17.54ZM94.8305 20.57C95.9905 20.57 96.8505 20.31 97.4105 19.79C97.9705 19.25 98.2505 18.5 98.2505 17.54C98.2505 15.5 97.1105 14.48 94.8305 14.48H91.5005V20.57H94.8305ZM121.002 23.33C121.002 23.93 120.962 24.47 120.882 24.95H108.732C108.832 26.15 109.252 27.09 109.992 27.77C110.732 28.45 111.642 28.79 112.722 28.79C114.282 28.79 115.392 28.12 116.052 26.78H120.582C120.102 28.38 119.182 29.7 117.822 30.74C116.462 31.76 114.792 32.27 112.812 32.27C111.212 32.27 109.772 31.92 108.492 31.22C107.232 30.5 106.242 29.49 105.522 28.19C104.822 26.89 104.472 25.39 104.472 23.69C104.472 21.97 104.822 20.46 105.522 19.16C106.222 17.86 107.202 16.86 108.462 16.16C109.722 15.46 111.172 15.11 112.812 15.11C114.392 15.11 115.802 15.45 117.042 16.13C118.302 16.81 119.272 17.78 119.952 19.04C120.652 20.28 121.002 21.71 121.002 23.33ZM116.652 22.13C116.632 21.05 116.242 20.19 115.482 19.55C114.722 18.89 113.792 18.56 112.692 18.56C111.652 18.56 110.772 18.88 110.052 19.52C109.352 20.14 108.922 21.01 108.762 22.13H116.652ZM128.268 17.96C128.808 17.08 129.508 16.39 130.368 15.89C131.248 15.39 132.248 15.14 133.368 15.14V19.55H132.258C130.938 19.55 129.938 19.86 129.258 20.48C128.598 21.1 128.268 22.18 128.268 23.72V32H124.068V15.38H128.268V17.96ZM143.817 18.83H140.907V32H136.647V18.83H134.757V15.38H136.647V14.54C136.647 12.5 137.227 11 138.387 10.04C139.547 9.08 141.297 8.63 143.637 8.69V12.23C142.617 12.21 141.907 12.38 141.507 12.74C141.107 13.1 140.907 13.75 140.907 14.69V15.38H143.817V18.83ZM153.919 32.27C152.319 32.27 150.879 31.92 149.599 31.22C148.319 30.5 147.309 29.49 146.569 28.19C145.849 26.89 145.489 25.39 145.489 23.69C145.489 21.99 145.859 20.49 146.599 19.19C147.359 17.89 148.389 16.89 149.689 16.19C150.989 15.47 152.439 15.11 154.039 15.11C155.639 15.11 157.089 15.47 158.389 16.19C159.689 16.89 160.709 17.89 161.449 19.19C162.209 20.49 162.589 21.99 162.589 23.69C162.589 25.39 162.199 26.89 161.419 28.19C160.659 29.49 159.619 30.5 158.299 31.22C156.999 31.92 155.539 32.27 153.919 32.27ZM153.919 28.61C154.679 28.61 155.389 28.43 156.049 28.07C156.729 27.69 157.269 27.13 157.669 26.39C158.069 25.65 158.269 24.75 158.269 23.69C158.269 22.11 157.849 20.9 157.009 20.06C156.189 19.2 155.179 18.77 153.979 18.77C152.779 18.77 151.769 19.2 150.949 20.06C150.149 20.9 149.749 22.11 149.749 23.69C149.749 25.27 150.139 26.49 150.919 27.35C151.719 28.19 152.719 28.61 153.919 28.61ZM169.87 17.96C170.41 17.08 171.11 16.39 171.97 15.89C172.85 15.39 173.85 15.14 174.97 15.14V19.55H173.86C172.54 19.55 171.54 19.86 170.86 20.48C170.2 21.1 169.87 22.18 169.87 23.72V32H165.67V15.38H169.87V17.96ZM198.439 15.14C200.479 15.14 202.119 15.77 203.359 17.03C204.619 18.27 205.249 20.01 205.249 22.25V32H201.049V22.82C201.049 21.52 200.719 20.53 200.059 19.85C199.399 19.15 198.499 18.8 197.359 18.8C196.219 18.8 195.309 19.15 194.629 19.85C193.969 20.53 193.639 21.52 193.639 22.82V32H189.439V22.82C189.439 21.52 189.109 20.53 188.449 19.85C187.789 19.15 186.889 18.8 185.749 18.8C184.589 18.8 183.669 19.15 182.989 19.85C182.329 20.53 181.999 21.52 181.999 22.82V32H177.799V15.38H181.999V17.39C182.539 16.69 183.229 16.14 184.069 15.74C184.929 15.34 185.869 15.14 186.889 15.14C188.189 15.14 189.349 15.42 190.369 15.98C191.389 16.52 192.179 17.3 192.739 18.32C193.279 17.36 194.059 16.59 195.079 16.01C196.119 15.43 197.239 15.14 198.439 15.14ZM224.684 23.33C224.684 23.93 224.644 24.47 224.564 24.95H212.414C212.514 26.15 212.934 27.09 213.674 27.77C214.414 28.45 215.324 28.79 216.404 28.79C217.964 28.79 219.074 28.12 219.734 26.78H224.264C223.784 28.38 222.864 29.7 221.504 30.74C220.144 31.76 218.474 32.27 216.494 32.27C214.894 32.27 213.454 31.92 212.174 31.22C210.914 30.5 209.924 29.49 209.204 28.19C208.504 26.89 208.154 25.39 208.154 23.69C208.154 21.97 208.504 20.46 209.204 19.16C209.904 17.86 210.884 16.86 212.144 16.16C213.404 15.46 214.854 15.11 216.494 15.11C218.074 15.11 219.484 15.45 220.724 16.13C221.984 16.81 222.954 17.78 223.634 19.04C224.334 20.28 224.684 21.71 224.684 23.33ZM220.334 22.13C220.314 21.05 219.924 20.19 219.164 19.55C218.404 18.89 217.474 18.56 216.374 18.56C215.334 18.56 214.454 18.88 213.734 19.52C213.034 20.14 212.604 21.01 212.444 22.13H220.334ZM231.95 17.96C232.49 17.08 233.19 16.39 234.05 15.89C234.93 15.39 235.93 15.14 237.05 15.14V19.55H235.94C234.62 19.55 233.62 19.86 232.94 20.48C232.28 21.1 231.95 22.18 231.95 23.72V32H227.75V15.38H231.95V17.96ZM246.239 32.27C244.879 32.27 243.659 32.03 242.579 31.55C241.499 31.05 240.639 30.38 239.999 29.54C239.379 28.7 239.039 27.77 238.979 26.75H243.209C243.289 27.39 243.599 27.92 244.139 28.34C244.699 28.76 245.389 28.97 246.209 28.97C247.009 28.97 247.629 28.81 248.069 28.49C248.529 28.17 248.759 27.76 248.759 27.26C248.759 26.72 248.479 26.32 247.919 26.06C247.379 25.78 246.509 25.48 245.309 25.16C244.069 24.86 243.049 24.55 242.249 24.23C241.469 23.91 240.789 23.42 240.209 22.76C239.649 22.1 239.369 21.21 239.369 20.09C239.369 19.17 239.629 18.33 240.149 17.57C240.689 16.81 241.449 16.21 242.429 15.77C243.429 15.33 244.599 15.11 245.939 15.11C247.919 15.11 249.499 15.61 250.679 16.61C251.859 17.59 252.509 18.92 252.629 20.6H248.609C248.549 19.94 248.269 19.42 247.769 19.04C247.289 18.64 246.639 18.44 245.819 18.44C245.059 18.44 244.469 18.58 244.049 18.86C243.649 19.14 243.449 19.53 243.449 20.03C243.449 20.59 243.729 21.02 244.289 21.32C244.849 21.6 245.719 21.89 246.899 22.19C248.099 22.49 249.089 22.8 249.869 23.12C250.649 23.44 251.319 23.94 251.879 24.62C252.459 25.28 252.759 26.16 252.779 27.26C252.779 28.22 252.509 29.08 251.969 29.84C251.449 30.6 250.689 31.2 249.689 31.64C248.709 32.06 247.559 32.27 246.239 32.27Z" fill="url(#paint0_linear_2844_768)"/>
<path d="M148.241 14.657C153.571 26.221 179.525 47.3835 240.699 39.5209C317.167 29.6927 254.558 -9.11836 170.239 12.5097" stroke="#FE7513" stroke-width="2" stroke-linecap="round"/>
<defs>
<linearGradient id="paint0_linear_2844_768" x1="85.2305" y1="25.1549" x2="276.259" y2="25.1549" gradientUnits="userSpaceOnUse">
<stop stop-color="#3E9FE8"/>
<stop offset="1" stop-color="#6148FF"/>
</linearGradient>
</defs>
</svg>
