<svg width="18" height="22" viewBox="0 0 18 22" fill="none" xmlns="http://www.w3.org/2000/svg">
<path d="M5.74805 9C5.74805 7.20507 7.20312 5.75 8.99805 5.75C10.793 5.75 12.248 7.20507 12.248 9C12.248 10.7949 10.793 12.25 8.99805 12.25C7.20312 12.25 5.74805 10.7949 5.74805 9Z" stroke="#377CF6"/>
<path fill-rule="evenodd" clip-rule="evenodd" d="M0.77159 7.87739C1.11523 3.70845 4.59902 0.5 8.7821 0.5H9.21404C13.3971 0.5 16.8809 3.70845 17.2246 7.87739C17.4096 10.122 16.7162 12.3508 15.2906 14.0943L10.4975 19.9561C9.72254 20.9039 8.27361 20.9039 7.49863 19.9561L2.70557 14.0943C1.27991 12.3508 0.586571 10.122 0.77159 7.87739ZM8.99805 4.25C6.37469 4.25 4.24805 6.37665 4.24805 9C4.24805 11.6234 6.37469 13.75 8.99805 13.75C11.6214 13.75 13.748 11.6234 13.748 9C13.748 6.37665 11.6214 4.25 8.99805 4.25Z" stroke="#377CF6"/>
</svg>
