<svg width="24" height="22" viewBox="0 0 24 22" fill="none" xmlns="http://www.w3.org/2000/svg">
<path d="M13.0576 0.65625C7.53756 0.65625 3.04956 5.00025 2.76156 10.4482H1.24956C0.745562 10.4482 0.433563 11.0002 0.697562 11.4323L3.40956 15.8963C3.64956 16.3043 4.24956 16.3043 4.51356 15.8963L7.22556 11.4323C7.48956 11.0003 7.17756 10.4483 6.67356 10.4483H4.96956C5.25756 6.22425 8.73756 2.86425 13.0576 2.86425C17.5456 2.86425 21.1936 6.51225 21.1936 11.0003C21.1936 15.4883 17.5456 19.1362 13.0576 19.1362C11.4496 19.1362 9.91356 18.6802 8.59356 17.7922C8.08956 17.4563 7.39356 17.6003 7.05756 18.1042C6.72156 18.6082 6.86556 19.3043 7.36956 19.6403C9.04956 20.7682 11.0176 21.3442 13.0576 21.3442C18.7696 21.3442 23.4016 16.7123 23.4016 11.0003C23.4016 5.28825 18.7696 0.65625 13.0576 0.65625Z" fill="white"/>
</svg>
