<svg width="12" height="14" viewBox="0 0 12 14" fill="none" xmlns="http://www.w3.org/2000/svg">
<path d="M11.067 7.42308C10.6946 7.36641 10.3638 7.62168 10.3104 7.98561C10.1763 8.89968 9.75443 9.73368 9.09036 10.3977C7.40023 12.0879 4.65223 12.0865 2.96276 10.3977C1.27363 8.70828 1.27363 5.95928 2.96276 4.27014C3.59816 3.63508 4.4003 3.22101 5.29803 3.07028C5.6841 2.99701 6.09916 2.98434 6.52983 3.03314C7.12116 3.10121 7.67157 3.29741 8.17383 3.58548L7.3059 3.73368C6.9433 3.79588 6.6991 4.14028 6.76163 4.50321C6.81696 4.82808 7.0989 5.05754 7.4179 5.05754C7.45503 5.05754 7.49276 5.05461 7.53117 5.04808L9.85796 4.65028C10.0318 4.62034 10.1874 4.52268 10.2896 4.37814C10.3918 4.23394 10.4322 4.05488 10.4022 3.88041L10.0038 1.55394C9.94256 1.19134 9.6027 0.948475 9.23423 1.00934C8.87163 1.07154 8.62743 1.41628 8.68997 1.77921L8.79483 2.39154C8.14956 2.02954 7.43776 1.79534 6.6815 1.70828C6.1151 1.64381 5.56563 1.66174 5.0627 1.75808C3.90483 1.95208 2.85276 2.49474 2.02003 3.32741C-0.188969 5.53641 -0.188969 9.13081 2.02003 11.3404C3.1245 12.4452 4.5757 12.9973 6.02656 12.9973C7.47776 12.9973 8.92823 12.4453 10.0331 11.3404C10.901 10.4725 11.453 9.37948 11.6294 8.17961C11.6829 7.81501 11.4309 7.47641 11.067 7.42308Z" fill="white" stroke="white" stroke-width="0.3"/>
</svg>
