<svg width="30" height="30" viewBox="0 0 30 30" fill="none" xmlns="http://www.w3.org/2000/svg">
<rect width="30" height="30" rx="6" fill="#377CF6"/>
<path d="M16.0161 14.091H14.6033V8.71793H19.7616V11.0013C19.7616 11.4757 20.1567 11.8602 20.6442 11.8602C21.1318 11.8602 21.5269 11.4757 21.5269 11.0013V8.01055C21.5269 7.45222 21.0622 7 20.4885 7H6.93684C6.36312 7 5.89844 7.45222 5.89844 8.01055V21.9895C5.89844 22.5478 6.36312 23 6.93684 23H13.5649C14.1387 23 14.6033 22.5478 14.6033 21.9895V15.8089H16.0161C16.5036 15.8089 16.8987 15.4244 16.8987 14.95C16.8987 14.4755 16.5036 14.091 16.0161 14.091ZM7.66372 8.71793H12.822V14.091H7.66372V8.71793ZM12.8381 21.2821H7.66372V15.909H12.8381V21.2821Z" fill="white"/>
<path d="M17.3508 20.2659L21.3195 15.8149L23.6014 17.7426L19.6321 22.193L17.1836 22.9358C17.0491 22.9767 16.9172 22.8655 16.9401 22.7301L17.3508 20.2664V20.2659Z" fill="white"/>
<path d="M21.7656 15.3204L22.6337 14.3472C22.7578 14.2077 22.9499 14.1198 23.1607 14.1052C23.3715 14.0905 23.574 14.1517 23.7173 14.2724L24.8393 15.2203C24.9966 15.3532 25.0875 15.53 25.102 15.7321C25.1165 15.9312 25.0506 16.1237 24.9161 16.2743L24.048 17.2475L21.7661 15.3198L21.7656 15.3204Z" fill="white"/>
</svg>
