<svg width="25" height="25" viewBox="0 0 25 25" fill="none" xmlns="http://www.w3.org/2000/svg">
<circle cx="12.5" cy="12.5" r="12.5" fill="#B3AAEB"/>
<path d="M5.49886 11.2398C9.76892 9.67586 11.3305 7.75723 11.8885 6.71275L11.3787 6.48707C11.2409 6.42607 11.2247 6.22519 11.3619 6.14667L13.3236 5.02405C13.4291 4.96362 13.5614 5.02217 13.5915 5.14266L14.1512 7.38133C14.1903 7.53789 14.0377 7.66415 13.8999 7.60303L13.2868 7.33167C11.8975 9.14704 9.62676 11.2109 5.49886 11.2398ZM14.743 9.29977H15.2933V16.8116C15.2933 16.9154 15.3755 17 15.4762 17H17.0454C17.1462 17 17.2283 16.9154 17.2283 16.8116V9.29977H17.7787C17.9632 9.29977 18.0662 9.08149 17.9524 8.93196L16.6083 7.16654C16.4315 6.93442 16.0901 6.93442 15.9134 7.16654L14.5693 8.93196C14.4554 9.08152 14.5585 9.29977 14.743 9.29977ZM12.045 10.7722C11.9443 10.7722 11.8622 10.8568 11.8622 10.9606V16.8116C11.8622 16.9154 11.9443 17 12.045 17H13.6143C13.715 17 13.7971 16.9154 13.7971 16.8116C13.7971 14.8613 13.7971 12.911 13.7971 10.9606C13.7971 10.8568 13.715 10.7722 13.6143 10.7722C13.0912 10.7722 12.5682 10.7722 12.045 10.7722ZM8.61393 12.2447C8.51321 12.2447 8.43108 12.3293 8.43108 12.433V16.8116C8.43108 16.9154 8.51321 17 8.61393 17H10.1832C10.2839 17 10.366 16.9154 10.366 16.8116C10.366 15.3521 10.366 13.8926 10.366 12.433C10.366 12.3293 10.2839 12.2447 10.1832 12.2447C9.66013 12.2447 9.13704 12.2447 8.61393 12.2447ZM5.18284 17H6.7521C6.85281 17 6.93494 16.9154 6.93494 16.8116V13.9055C6.93494 13.8017 6.85281 13.7171 6.7521 13.7171H5.18284C5.08213 13.7171 5 13.8017 5 13.9055V16.8116C5 16.9154 5.08213 17 5.18284 17Z" fill="white"/>
</svg>
