<svg width="26" height="26" viewBox="0 0 26 26" fill="none" xmlns="http://www.w3.org/2000/svg">
<path d="M24.8093 11.8821L2.30929 0.632106C2.08814 0.521458 1.83913 0.478895 1.59377 0.509802C1.34842 0.540709 1.11775 0.643697 0.930938 0.805736C0.74413 0.967775 0.609582 1.18158 0.544318 1.42011C0.479053 1.65863 0.486005 1.91116 0.564294 2.14573L4.18242 13.0002L0.564294 23.8547C0.486005 24.0893 0.479053 24.3418 0.544318 24.5804C0.609582 24.8189 0.74413 25.0327 0.930938 25.1947C1.11775 25.3568 1.34842 25.4598 1.59377 25.4907C1.83913 25.5216 2.08814 25.479 2.30929 25.3684L24.8093 14.1184C25.017 14.0146 25.1916 13.855 25.3137 13.6575C25.4358 13.46 25.5005 13.2324 25.5005 13.0002C25.5005 12.7681 25.4358 12.5405 25.3137 12.343C25.1916 12.1455 25.017 11.9859 24.8093 11.8821ZM3.89004 21.7832L6.40117 14.2502H13.0002C13.3317 14.2502 13.6496 14.1185 13.8841 13.8841C14.1185 13.6497 14.2502 13.3318 14.2502 13.0002C14.2502 12.6687 14.1185 12.3508 13.8841 12.1163C13.6496 11.8819 13.3317 11.7502 13.0002 11.7502H6.40117L3.89004 4.21723L21.4554 13.0002L3.89004 21.7832Z" fill="#434343"/>
</svg>
